<svg xmlns="http://www.w3.org/2000/svg" width="27.7128" height="48" viewBox="0 0 27.7128 48">
  <!-- Seamless pointy-top honeycomb tile. Stroke = light theme border-2. -->
  <g fill="none" stroke="#cbbeea" stroke-width="0.5">
    <path d="M0 -16L13.8564 -8L13.8564 8L0 16L-13.8564 8L-13.8564 -8Z"/>
    <path d="M27.7128 -16L41.5692 -8L41.5692 8L27.7128 16L13.8564 8L13.8564 -8Z"/>
    <path d="M13.8564 8L27.7128 16L27.7128 32L13.8564 40L0 32L0 16Z"/>
    <path d="M0 32L13.8564 40L13.8564 56L0 64L-13.8564 56L-13.8564 40Z"/>
    <path d="M27.7128 32L41.5692 40L41.5692 56L27.7128 64L13.8564 56L13.8564 40Z"/>
  </g>
</svg>
